<svg width="20" height="20" fill="none" xmlns="http://www.w3.org/2000/svg"><g clip-path="url(#clip0)" fill="#BABABA"><path d="M13.645 0H5.586C2.506 0 0 2.606 0 5.81v8.38C0 17.394 2.506 20 5.586 20h8.059c3.08 0 5.586-2.606 5.586-5.81V5.81c0-3.204-2.506-5.81-5.586-5.81zm4.083 14.19c0 2.342-1.832 4.248-4.083 4.248H5.586c-2.252 0-4.084-1.906-4.084-4.248V5.81c0-2.342 1.832-4.247 4.084-4.247h8.059c2.251 0 4.083 1.905 4.083 4.247v8.38z"/><path d="M9.616 4.61c-2.858 0-5.183 2.418-5.183 5.39 0 2.972 2.325 5.39 5.183 5.39 2.858 0 5.183-2.418 5.183-5.39 0-2.972-2.325-5.39-5.183-5.39zm0 9.218c-2.03 0-3.681-1.717-3.681-3.828 0-2.11 1.651-3.828 3.68-3.828 2.03 0 3.682 1.717 3.682 3.828 0 2.11-1.652 3.828-3.681 3.828zm5.257-8.515c.415 0 .752-.35.752-.782 0-.431-.337-.781-.752-.781s-.75.35-.75.781c0 .432.335.782.75.782z"/></g><defs><clipPath id="clip0"><path fill="#fff" d="M0 0h19.231v20H0z"/></clipPath></defs></svg>