<svg class="logo__figure" width="50" height="38" fill="none" xmlns="http://www.w3.org/2000/svg"><path fill-rule="evenodd" clip-rule="evenodd" d="M0 32.556V2.066C0 .924.91 0 2.033 0h15.004c1.51 0 2.493 1.616 1.818 2.989L3.85 33.479C2.891 35.43 0 34.736 0 32.556zm50 0V2.066C50 .924 49.09 0 47.968 0H32.962c-1.51 0-2.493 1.616-1.818 2.989l15.005 30.49c.959 1.95 3.85 1.256 3.85-.923zm-23.984 3.379V5.444c0-2.18 2.892-2.873 3.85-.924l15.005 30.491c.675 1.373-.307 2.989-1.818 2.989H28.049c-1.123 0-2.033-.925-2.033-2.065zM23.984 5.444v30.49c0 1.141-.91 2.066-2.033 2.066H6.947c-1.51 0-2.493-1.616-1.818-2.989l15.004-30.49c.96-1.95 3.85-1.256 3.85.923z" fill="url(#paint0_linear)"/><defs><linearGradient id="paint0_linear" x1="25.203" y1="38" x2="25.203" y2="0" gradientUnits="userSpaceOnUse"><stop offset=".479" stop-color="#275553"/><stop offset="1" stop-color="#F47648"/></linearGradient></defs></svg>