<svg width="123" height="92" fill="none" xmlns="http://www.w3.org/2000/svg"><path fill-rule="evenodd" clip-rule="evenodd" d="M0 78.82V5a5 5 0 015-5h36.91c3.717 0 6.134 3.912 4.472 7.236l-36.91 73.82C7.112 85.775 0 84.096 0 78.82zm123 0V5a5 5 0 00-5-5H81.09c-3.717 0-6.134 3.912-4.472 7.236l36.91 73.82c2.359 4.719 9.472 3.04 9.472-2.236zM64 87V13.18c0-5.276 7.113-6.955 9.472-2.236l36.91 73.82c1.662 3.324-.755 7.236-4.472 7.236H69a5 5 0 01-5-5zm-5-73.82V87a5 5 0 01-5 5H17.09c-3.717 0-6.134-3.912-4.472-7.236l36.91-73.82C51.888 6.225 59 7.904 59 13.18z" fill="url(#paint0_linear)"/><defs><linearGradient id="paint0_linear" x1="62" y1="92" x2="62" y2="0" gradientUnits="userSpaceOnUse"><stop offset=".479" stop-color="#275553"/><stop offset="1" stop-color="#F47648"/></linearGradient></defs></svg>