<svg width="23" height="23" fill="none" xmlns="http://www.w3.org/2000/svg"><path d="M16.319 0H6.68A6.689 6.689 0 000 6.681v9.638A6.689 6.689 0 006.681 23h9.638A6.689 6.689 0 0023 16.319V6.68A6.689 6.689 0 0016.319 0zm4.884 16.319a4.89 4.89 0 01-4.884 4.884H6.68a4.89 4.89 0 01-4.884-4.884V6.68A4.89 4.89 0 016.68 1.797h9.638a4.89 4.89 0 014.884 4.884v9.638z" fill="#000"/><path d="M11.5 5.3c-3.418 0-6.2 2.782-6.2 6.2s2.782 6.2 6.2 6.2 6.2-2.782 6.2-6.2-2.782-6.2-6.2-6.2zm0 10.602A4.407 4.407 0 017.098 11.5 4.407 4.407 0 0111.5 7.098a4.407 4.407 0 014.402 4.402 4.407 4.407 0 01-4.402 4.402zm6.29-9.792a.898.898 0 100-1.797.898.898 0 000 1.796z" fill="#000"/></svg>