<svg width="24" height="23" fill="none" xmlns="http://www.w3.org/2000/svg"><g clip-path="url(#clip0)"><path d="M13.62 22.955H9.77c-.644 0-1.167-.5-1.167-1.116v-8.307H6.356c-.643 0-1.167-.501-1.167-1.116v-3.56c0-.615.524-1.116 1.167-1.116h2.247V5.958c0-1.768.58-3.272 1.678-4.349C11.383.527 12.924-.045 14.737-.045l2.937.005c.642 0 1.164.501 1.164 1.115v3.306c0 .615-.523 1.115-1.166 1.115l-1.977.001c-.604 0-.757.116-.79.151-.054.059-.118.225-.118.684V7.74h2.736c.206 0 .406.049.578.14.37.198.6.572.6.976l-.002 3.56c0 .615-.523 1.115-1.166 1.115h-2.746v8.308c0 .616-.524 1.116-1.167 1.116zm-3.608-1.348h3.365v-8.679c0-.41.35-.745.778-.745h3.134l.002-3.094h-3.136c-.429 0-.778-.334-.778-.745V6.332c0-.527.056-1.126.471-1.576.503-.545 1.294-.607 1.846-.607l1.734-.001v-2.84l-2.692-.005c-2.913 0-4.724 1.784-4.724 4.655v2.386c0 .41-.349.745-.778.745H6.599v3.094h2.635c.429 0 .778.334.778.745v8.679zm7.659-20.299z" fill="#000"/></g><defs><clipPath id="clip0"><path fill="#fff" d="M0 0h24v23H0z"/></clipPath></defs></svg>