<svg width="21" height="20" fill="none" xmlns="http://www.w3.org/2000/svg"><g clip-path="url(#clip0)"><path d="M12.017 19.96H8.685c-.557 0-1.01-.434-1.01-.97v-7.223H5.731c-.557 0-1.01-.436-1.01-.97V7.7c0-.535.453-.97 1.01-.97h1.944V5.18c0-1.537.503-2.845 1.452-3.782.955-.94 2.288-1.438 3.857-1.438l2.541.004c.556 0 1.008.436 1.008.97V3.81c0 .535-.453.97-1.01.97l-1.71.001c-.522 0-.655.1-.684.131-.046.051-.102.196-.102.595v1.225h2.368c.178 0 .351.042.5.122.32.172.52.497.52.848l-.002 3.096c0 .534-.453.97-1.01.97h-2.376v7.224c0 .535-.453.97-1.01.97zm-3.122-1.172h2.912v-7.546c0-.357.302-.648.674-.648h2.712v-2.69h-2.712a.662.662 0 01-.674-.648v-1.75c0-.458.048-.979.408-1.37.435-.474 1.12-.529 1.597-.529h1.501v-2.47l-2.33-.004c-2.521 0-4.088 1.551-4.088 4.048v2.075a.662.662 0 01-.673.647h-2.28v2.691h2.28c.371 0 .673.29.673.648v7.546zm6.628-17.65z" fill="#BABABA"/></g><defs><clipPath id="clip0"><path fill="#fff" transform="translate(.23)" d="M0 0h20.769v20H0z"/></clipPath></defs></svg>