<svg width="31" height="30" fill="none" xmlns="http://www.w3.org/2000/svg"><g clip-path="url(#clip0)"><path d="M16.134 24.375c4.34 0 2.793-2.747 3.128-3.538-.005-.59-.01-1.157.01-1.502.275.078.924.406 2.264 1.709 2.068 2.087 2.597 3.331 4.268 3.331h3.077c.975 0 1.482-.404 1.736-.742.245-.328.485-.903.222-1.798-.686-2.155-4.688-5.876-4.937-6.269a3.38 3.38 0 01.129-.219h-.003c.79-1.043 3.805-5.56 4.249-7.368a.024.024 0 00.002-.01c.24-.825.02-1.36-.207-1.663-.343-.452-.888-.681-1.624-.681h-3.076c-1.03 0-1.811.519-2.206 1.465-.662 1.681-2.52 5.139-3.912 6.363a80.154 80.154 0 01.01-4.042c.044-1.918.19-3.786-1.802-3.786h-4.835c-1.248 0-2.441 1.362-1.149 2.98 1.13 1.418.406 2.207.65 6.14-.95-1.019-2.64-3.77-3.835-7.286-.335-.951-.842-1.833-2.271-1.833H2.946c-1.248 0-1.993.68-1.993 1.819 0 2.557 5.661 16.93 15.181 16.93zM6.022 7.501c.271 0 .299 0 .5.571 1.224 3.604 3.969 8.937 5.974 8.937 1.506 0 1.506-1.544 1.506-2.125L14 10.256c-.083-1.531-.64-2.293-1.007-2.756l4.385.005c.003.021-.025 5.119.013 6.354 0 1.754 1.392 2.758 3.566.559 2.294-2.59 3.88-6.46 3.944-6.617.094-.225.175-.301.47-.301h3.089l-.003.011c-.281 1.313-3.057 5.495-3.986 6.794a.993.993 0 00-.043.063c-.408.667-.74 1.405.057 2.442.073.088.262.293.537.578.855.882 3.788 3.9 4.048 5.1-.173.027-.36.007-3.267.013-.618 0-1.102-.925-2.948-2.787-1.66-1.615-2.738-2.275-3.72-2.275-1.904 0-1.765 1.546-1.748 3.416.006 2.027-.006 1.386.008 1.514-.112.044-.43.131-1.262.131C8.204 22.5 3.038 9.911 2.84 7.505c.07-.006 1.015-.002 3.183-.004z" fill="#000"/></g><defs><clipPath id="clip0"><path fill="#fff" transform="translate(.953)" d="M0 0h30v30H0z"/></clipPath></defs></svg>