<svg class="logo__text" class="logo__text" width="101" height="37" fill="none" xmlns="http://www.w3.org/2000/svg">
  <path class="logo__text-dreamkam" d="M.607 14.17V.738H4.35c1.154 0 2.173.258 3.06.775.886.517 1.569 1.252 2.048 2.205.486.953.731 2.048.737 3.284v.858c0 1.267-.242 2.377-.728 3.33A5.095 5.095 0 017.4 13.386c-.892.51-1.933.772-3.122.784H.607zM2.355 2.196v10.526h1.84c1.347 0 2.394-.425 3.14-1.273.753-.849 1.13-2.058 1.13-3.626V7.04c0-1.525-.355-2.71-1.066-3.552-.704-.849-1.705-1.28-3.004-1.291h-2.04zm15.35 6.54h-3.113v5.434h-1.757V.738h4.388c1.493 0 2.64.344 3.442 1.033.807.69 1.21 1.692 1.21 3.008 0 .836-.224 1.565-.673 2.186-.443.621-1.062 1.086-1.857 1.393l3.113 5.701v.111h-1.875l-2.877-5.434zm-3.113-1.448h2.686c.868 0 1.557-.227 2.067-.683.515-.455.774-1.064.774-1.826 0-.83-.246-1.467-.738-1.91-.486-.443-1.19-.667-2.112-.673h-2.677v5.092zm17.235.674h-5.745v4.76h6.674v1.448h-8.422V.738h8.33v1.458h-6.582v4.317h5.745v1.449zm10.425 2.703h-5.554L35.45 14.17h-1.803L38.71.738h1.53l5.07 13.432h-1.793l-1.265-3.505zm-5.026-1.458h4.507l-2.258-6.283-2.249 6.283zM49.353.738l4.334 10.96L58.021.738h2.267V14.17H58.54V8.94l.164-5.647-4.352 10.877h-1.339L48.67 3.321l.173 5.618v5.231h-1.748V.738h2.258zm17.39 7.187l-1.62 1.706v4.54h-1.749V.737h1.748V7.38L71.013.738h2.112L67.908 6.67l5.627 7.5h-2.094l-4.698-6.245zm15.642 2.74H76.83l-1.247 3.505H73.78L78.843.738h1.53l5.071 13.432H83.65l-1.265-3.505zm-5.026-1.458h4.507l-2.258-6.283-2.25 6.283zM89.486.738l4.334 10.96L98.154.738h2.267V14.17h-1.748V8.94l.164-5.647-4.353 10.877h-1.337L88.803 3.321l.173 5.618v5.231h-1.748V.738h2.258z" fill="#275553"/>
  <path class="logo__text-tour" d="M11.03 24.472H6.767v11.974H5.03V24.473H.777v-1.458H11.03v1.458zm11.908 5.692c0 1.316-.219 2.466-.656 3.45-.437.978-1.056 1.726-1.857 2.242-.801.517-1.736.775-2.804.775-1.044 0-1.97-.258-2.777-.775-.807-.523-1.435-1.264-1.885-2.223-.443-.966-.67-2.082-.683-3.35v-.968c0-1.291.222-2.432.665-3.422.443-.99 1.068-1.747 1.876-2.27.813-.529 1.742-.793 2.786-.793 1.062 0 1.996.261 2.804.784.813.517 1.438 1.27 1.875 2.26.437.984.656 2.131.656 3.441v.849zm-1.74-.867c0-1.593-.315-2.814-.946-3.663-.631-.855-1.514-1.282-2.65-1.282-1.104 0-1.975.427-2.612 1.282-.632.85-.956 2.03-.975 3.543v.987c0 1.544.32 2.758.956 3.644.644.88 1.527 1.32 2.65 1.32 1.129 0 2.003-.416 2.622-1.246.619-.837.938-2.033.956-3.589v-.996zm13.694-6.283v9.134c-.006 1.266-.4 2.303-1.183 3.108-.777.806-1.833 1.258-3.169 1.356l-.464.019c-1.45 0-2.607-.397-3.469-1.19-.862-.794-1.299-1.885-1.311-3.275v-9.152h1.73v9.097c0 .971.264 1.728.792 2.269.528.535 1.28.803 2.258.803.99 0 1.745-.268 2.267-.803.528-.535.792-1.288.792-2.26v-9.106h1.757zm7.62 7.999H39.4v5.433h-1.757V23.014h4.388c1.493 0 2.64.345 3.442 1.034.807.688 1.21 1.69 1.21 3.007 0 .837-.224 1.565-.673 2.186-.443.622-1.062 1.086-1.857 1.393l3.113 5.702v.11H45.39l-2.877-5.433zM39.4 29.564h2.686c.868 0 1.557-.227 2.067-.682.515-.456.773-1.064.773-1.827 0-.83-.245-1.467-.737-1.91-.486-.442-1.19-.667-2.112-.673h-2.677v5.092z" fill="#F47648"/>
</svg>
