<svg class="logo__text" width="130" height="47" fill="none" xmlns="http://www.w3.org/2000/svg">
  <path class="logo__text-dreamkam" d="M.781 18V.937h4.817c1.484 0 2.797.329 3.937.985 1.14.656 2.02 1.59 2.637 2.8.625 1.212.941 2.602.95 4.173v1.09c0 1.609-.313 3.019-.938 4.23-.618 1.21-1.504 2.14-2.66 2.789-1.149.648-2.489.98-4.02.996H.78zm2.25-15.21v13.37h2.367c1.735 0 3.082-.539 4.043-1.617.97-1.078 1.454-2.613 1.454-4.605V8.94c0-1.937-.457-3.441-1.372-4.511-.906-1.078-2.195-1.625-3.867-1.64H3.031zm19.758 8.308h-4.008V18H16.52V.937h5.648c1.922 0 3.398.438 4.43 1.313 1.039.875 1.558 2.148 1.558 3.82 0 1.063-.289 1.989-.867 2.778-.57.789-1.367 1.379-2.39 1.77l4.007 7.241V18h-2.414l-3.703-6.902zm-4.008-1.84h3.457c1.117 0 2.004-.29 2.66-.867.665-.579.997-1.352.997-2.32 0-1.055-.317-1.864-.95-2.426-.625-.563-1.53-.848-2.718-.856H18.78v6.469zm22.184.855H33.57v6.047h8.59V18H31.32V.937h10.723V2.79H33.57v5.484h7.395v1.84zm13.418 3.434h-7.149L45.63 18h-2.32L49.824.937h1.969L58.32 18h-2.308l-1.63-4.453zm-6.469-1.852h5.8l-2.905-7.98-2.895 7.98zM63.524.937l5.578 13.922L74.68.938h2.918V18h-2.25v-6.645l.21-7.171L69.958 18h-1.723l-5.59-13.781.223 7.136V18h-2.25V.937h2.906zm22.382 9.13l-2.086 2.167V18h-2.25V.937h2.25v8.438L91.402.937h2.72l-6.716 7.536L94.648 18h-2.695l-6.047-7.934zm20.133 3.48h-7.148L97.285 18h-2.32L101.48.937h1.969L109.977 18h-2.309l-1.629-4.453zm-6.469-1.852h5.801l-2.906-7.98-2.895 7.98zM115.18.937l5.578 13.922L126.336.938h2.918V18h-2.25v-6.645l.211-7.171L121.613 18h-1.722l-5.59-13.781.222 7.136V18h-2.25V.937h2.907z" fill="#275553"/>
  <path class="logo__text-tour" d="M14.195 31.086H8.711v15.21H6.473v-15.21H1v-1.852h13.195v1.852zm15.328 7.23c0 1.672-.28 3.133-.843 4.383-.563 1.242-1.36 2.192-2.39 2.848-1.032.656-2.235.984-3.61.984-1.344 0-2.535-.328-3.575-.984-1.038-.664-1.847-1.606-2.425-2.824-.57-1.227-.864-2.645-.88-4.254v-1.23c0-1.641.286-3.09.856-4.348.57-1.258 1.375-2.22 2.414-2.883C20.117 29.336 21.312 29 22.656 29c1.367 0 2.57.332 3.61.996 1.047.656 1.851 1.613 2.414 2.871.562 1.25.843 2.707.843 4.371v1.078zm-2.238-1.101c0-2.024-.406-3.574-1.218-4.653-.813-1.085-1.95-1.628-3.41-1.628-1.423 0-2.544.543-3.364 1.628-.813 1.079-1.23 2.579-1.254 4.5v1.254c0 1.961.41 3.504 1.23 4.63.829 1.117 1.965 1.675 3.41 1.675 1.454 0 2.579-.527 3.376-1.582.797-1.062 1.207-2.582 1.23-4.559v-1.265zm17.625-7.98v11.601c-.008 1.61-.515 2.926-1.523 3.95-1 1.023-2.36 1.597-4.078 1.722l-.598.023c-1.867 0-3.355-.504-4.465-1.511-1.11-1.008-1.672-2.395-1.687-4.16V29.233h2.226V40.79c0 1.234.34 2.195 1.02 2.883.68.68 1.648 1.02 2.906 1.02 1.273 0 2.246-.34 2.918-1.02.68-.68 1.02-1.637 1.02-2.871V29.234h2.261zm9.809 10.16H50.71v6.902h-2.262V29.234h5.649c1.922 0 3.398.438 4.43 1.313 1.038.875 1.558 2.148 1.558 3.82 0 1.063-.29 1.989-.867 2.778-.57.789-1.367 1.378-2.39 1.77l4.007 7.241v.14h-2.414l-3.703-6.901zm-4.008-1.84h3.457c1.117 0 2.004-.29 2.66-.867.664-.579.996-1.352.996-2.32 0-1.056-.316-1.864-.949-2.427-.625-.562-1.531-.847-2.719-.855h-3.445v6.469z" fill="#F47648"/>
</svg>
