<svg width="16" height="16" viewBox="0 0 16 16" fill="#000" xmlns="http://www.w3.org/2000/svg">
  <g clip-path="url(#clip0)">
    <path
      d="M14.9271 8.63412C14.9269 8.63429 14.9268 8.63449 14.9266 8.63466L11.9362 11.6106C11.7122 11.8335 11.3499 11.8327 11.1269 11.6086C10.9039 11.3846 10.9048 11.0223 11.1288 10.7993L13.1365 8.80131L1.01663 8.80131C0.70055 8.80131 0.444336 8.5451 0.444336 8.22902C0.444336 7.91295 0.70055 7.65673 1.01663 7.65673L13.1365 7.65674L11.1288 5.65876C10.9048 5.4358 10.904 5.07345 11.1269 4.84943C11.3499 4.62535 11.7123 4.62458 11.9363 4.84748L14.9266 7.82339C14.9268 7.82356 14.9269 7.82376 14.9271 7.82393C15.1513 8.04764 15.1505 8.41116 14.9271 8.63412Z"
      fill="#000" />
  </g>
  <defs>
    <clipPath id="clip0">
      <rect width="14.6506" height="14.6506" fill="#000"
        transform="matrix(1 8.74231e-08 8.74224e-08 -1 0.444336 15.5543)" />
    </clipPath>
  </defs>
</svg>
